<svg xmlns="http://www.w3.org/2000/svg" viewBox="0 0 50 50"><defs><style>.cls-1{fill:#fff;}.cls-2,.cls-5{fill:none;}.cls-2{stroke:#1c97d5;stroke-linecap:round;stroke-linejoin:round;stroke-width:2px;}.cls-3{fill:#00a0e9;}.cls-4{fill:#1c97d5;}</style></defs><g id="레이어_2" data-name="레이어 2"><g id="레이어_1-2" data-name="레이어 1"><path class="cls-1" d="M9,6.95H41a0,0,0,0,1,0,0v31a5,5,0,0,1-5,5H9a0,0,0,0,1,0,0v-36A0,0,0,0,1,9,6.95Z"/><polyline class="cls-2" points="13.8 11.73 16.16 14.31 20 10.11"/><rect class="cls-3" x="23.33" y="30.06" width="16.67" height="11.75" rx="4.22"/><path class="cls-1" d="M35.78,31.06A3.23,3.23,0,0,1,39,34.29v3.3a3.22,3.22,0,0,1-3.22,3.22H27.56a3.23,3.23,0,0,1-3.23-3.22v-3.3a3.23,3.23,0,0,1,3.23-3.23h8.22m0-2H27.56a5.23,5.23,0,0,0-5.23,5.23v3.3a5.22,5.22,0,0,0,5.23,5.22h8.22A5.22,5.22,0,0,0,41,37.59v-3.3a5.23,5.23,0,0,0-5.22-5.23Z"/><path class="cls-1" d="M26.32,37.06,28.4,35.8c.09,0,.64-.47.77-.39s0,.63-.07.78a1.78,1.78,0,0,0,.35,1.69,1.52,1.52,0,0,0,1.62.34,19.89,19.89,0,0,0,1.9-1c.4-.19.31-.13.31.24a1.6,1.6,0,0,0,.15.75c.32.58.91.44,1.4.22.74-.34,1.45-.71,2.15-1.12a.62.62,0,0,0-.64-1.07l-1.06.58a6.8,6.8,0,0,0-1.08.53l.34.29a1.09,1.09,0,0,1,0-.18,1.28,1.28,0,0,0,0-.39A1.26,1.26,0,0,0,32.67,36c-.36.15-.71.36-1.06.54a3.28,3.28,0,0,1-1,.5c-.59.06-.13-1.08-.11-1.4a1.4,1.4,0,0,0-.78-1.38,1.93,1.93,0,0,0-1.83.39L25.68,36a.63.63,0,0,0,.64,1.08Z"/><rect class="cls-4" x="14.71" y="19.54" width="20.7" height="1.18"/><rect class="cls-4" x="14.71" y="24.25" width="20.7" height="1.18"/><rect class="cls-5" width="50" height="50"/></g></g></svg>