<svg xmlns="http://www.w3.org/2000/svg" viewBox="0 0 109.66 109.66"><defs><style>.cls-1,.cls-3{fill:none;}.cls-2{fill:#fff;}.cls-3{stroke:#fff;stroke-width:2px;}</style></defs><g id="레이어_2" data-name="레이어 2"><g id="레이어_1-2" data-name="레이어 1"><rect class="cls-1" width="109.66" height="109.66"/><path class="cls-2" d="M89.35,20.64a1.58,1.58,0,0,1,.49,1.29v65.8A1.66,1.66,0,0,1,89.37,89H20.32a1.54,1.54,0,0,1-.5-1.29V21.93a1.66,1.66,0,0,1,.47-1.29H89.35m0-2H20.29c-1.37,0-2.47,1.47-2.47,3.29v65.8c0,1.81,1.1,3.29,2.47,3.29H89.37c1.36,0,2.47-1.48,2.47-3.29V21.93c0-1.82-1.11-3.29-2.47-3.29Z"/><path class="cls-3" d="M19.4,34.47c0-1.76,1.05-3.18,2.36-3.18H87.9c1.3,0,2.36,1.42,2.36,3.18"/><path id="패스_630" data-name="패스 630" class="cls-3" d="M62.31,62.54v8.72"/><path id="패스_631" data-name="패스 631" class="cls-3" d="M70.43,53.81V71.26"/><path id="패스_632" data-name="패스 632" class="cls-3" d="M78.55,49.45V71.26"/><path class="cls-2" d="M40.54,60.39A2.16,2.16,0,0,1,39.65,59V44.59a14.29,14.29,0,0,0,1.49,28.5,14.1,14.1,0,0,0,10.58-4.78L43.9,62.77Z"/><path class="cls-2" d="M54.11,64.62A14.3,14.3,0,0,0,44,44.81V57.5Z"/><path class="cls-2" d="M87.86,89.74H21.69a2.51,2.51,0,0,1-2.4-2.61V82.25a2.51,2.51,0,0,1,2.4-2.61H87.86a2.51,2.51,0,0,1,2.4,2.61v4.88A2.51,2.51,0,0,1,87.86,89.74Z"/></g></g></svg>