<svg xmlns="http://www.w3.org/2000/svg" width="50" height="50"><defs><style>.cls-2,.cls-3{fill:none;stroke:#fcfcfc;stroke-linecap:round;stroke-linejoin:round}.cls-2{stroke-width:2px}.cls-3{stroke-width:1.5px}</style></defs><g id="nav_admin" transform="translate(-10 -174)"><path id="layout" fill="none" d="M0 0h50v50H0z" transform="translate(10 174)"/><g id="그룹_70" data-name="그룹 70" transform="translate(306.106 -137)"><g id="그룹_68" data-name="그룹 68"><circle id="타원_9" cx="6.162" cy="6.162" r="6.162" class="cls-2" data-name="타원 9" transform="translate(-279.329 320)"/><path id="패스_85" d="M-285.106 348.5v-2.311a10.816 10.816 0 0110.784-10.789h2.311a10.681 10.681 0 013.977.765" class="cls-2" data-name="패스 85"/></g><g id="그룹_69" data-name="그룹 69"><circle id="타원_10" cx="1.793" cy="1.793" r="1.793" class="cls-3" data-name="타원 10" transform="translate(-264.963 343.001)"/><path id="패스_86" d="M-265.1 340.262a5.084 5.084 0 00-.559.276 5.022 5.022 0 00-.515.352l-2.052-1.17a7.151 7.151 0 00-1.891 3.306l2.058 1.174a4.94 4.94 0 000 1.245l-2.036 1.191a7.152 7.152 0 00.733 1.777 7.186 7.186 0 001.19 1.511l2.036-1.191a4.948 4.948 0 001.085.612l.013 2.369a7.151 7.151 0 003.809-.026l-.013-2.363a5.075 5.075 0 00.558-.276 4.815 4.815 0 00.515-.352l2.053 1.17a7.15 7.15 0 001.891-3.307l-2.059-1.173a4.94 4.94 0 000-1.245l2.036-1.191a7.119 7.119 0 00-.734-1.777 7.149 7.149 0 00-1.189-1.511l-2.036 1.191a4.907 4.907 0 00-1.085-.612l-.013-2.369a7.151 7.151 0 00-3.809.026l.013 2.363" class="cls-3" data-name="패스 86"/></g></g></g></svg>