<svg xmlns="http://www.w3.org/2000/svg" viewBox="0 0 50 50"><defs><style>.cls-1{fill:#fff;}.cls-2{fill:none;}</style></defs><g id="레이어_2" data-name="레이어 2"><g id="레이어_1-2" data-name="레이어 1"><path id="패스_619" data-name="패스 619" class="cls-1" d="M42.82,26.22a2.92,2.92,0,0,0-.16-.71,10.43,10.43,0,0,0-.32-1.22c-.09-.26-.22-.51-.33-.79a7.3,7.3,0,0,0-.43-.94c-.16-.3-.38-.45-.38-.62s-.36-.54-.56-.8a6,6,0,0,0-.57-.64l-.67-.71-.65-.51a5.35,5.35,0,0,0-.78-.49l-.7-.39a6.46,6.46,0,0,0-.9-.32,4.13,4.13,0,0,0-.75-.19l-.41-.24c-2-6.71-8.11-10.26-13.74-7.94a12.05,12.05,0,0,0-6.68,7.94l-.32.1a4.76,4.76,0,0,0-.74.2,5.66,5.66,0,0,0-.9.32l-.71.38a7.45,7.45,0,0,0-.79.5l-.64.64-.67.66c-.2.22-.4.41-.58.65s-.38.53-.56.79a6.53,6.53,0,0,0-.46.77c-.15.28-.29.62-.44.94s-.22.52-.32.8a11.47,11.47,0,0,0-.33,1.22,4.18,4.18,0,0,1-.16.7A12.79,12.79,0,0,0,7,28.37a14,14,0,0,0,.16,1.94,4,4,0,0,0,.13.62,12.7,12.7,0,0,0,.32,1.25l.22.62A10.74,10.74,0,0,0,8.37,34l.24.47.09.17.09.15A8.63,8.63,0,0,0,16,39.07h5.4V36.14a3.22,3.22,0,0,1-1.8.57,3.46,3.46,0,0,1-2.6-1.3,4.88,4.88,0,0,1,.09-6.06h0l5.41-6.21a3.2,3.2,0,0,1,5,.07l5.4,6.42a4.88,4.88,0,0,1,0,6.06,3.37,3.37,0,0,1-2.52,1.25,3.13,3.13,0,0,1-1.8-.58v2.72H34a8.63,8.63,0,0,0,7.21-4.28l.09-.11.09-.17.24-.47a10.74,10.74,0,0,0,.54-1.2l.22-.62c.13-.41.23-.83.32-1.25a4.26,4.26,0,0,1,.13-.62,14.7,14.7,0,0,0,.16-2A12.7,12.7,0,0,0,42.82,26.22Z"/><path id="패스_620" data-name="패스 620" class="cls-1" d="M25.9,26.11a1.14,1.14,0,0,0-1.8,0l-3.87,4.44a1.74,1.74,0,0,0-.16,2.16,1.15,1.15,0,0,0,1.81.2l.13-.15,1.69-1.95v8.66A1.42,1.42,0,0,0,25,41a1.43,1.43,0,0,0,1.29-1.53V30.89l1.66,2a1.16,1.16,0,0,0,1.83,0,1.76,1.76,0,0,0,0-2.17Z"/><rect class="cls-2" width="50" height="50"/></g></g></svg>