<svg xmlns="http://www.w3.org/2000/svg" viewBox="0 0 50 50"><defs><style>.cls-1{fill:#fff;}.cls-2{fill:none;}</style></defs><g id="레이어_2" data-name="레이어 2"><g id="레이어_1-2" data-name="레이어 1"><circle id="타원_50" data-name="타원 50" class="cls-1" cx="25.93" cy="21.58" r="1.96"/><circle id="타원_51" data-name="타원 51" class="cls-1" cx="33.77" cy="21.58" r="1.96"/><circle id="타원_52" data-name="타원 52" class="cls-1" cx="18.08" cy="21.58" r="1.96"/><path id="패스_625" data-name="패스 625" class="cls-1" d="M36.9,8H13.1A5.24,5.24,0,0,0,8,13.37V40.21a1.82,1.82,0,0,0,.87,1.56,1.63,1.63,0,0,0,1.7,0l7.63-4.87a1.64,1.64,0,0,1,.94-.25H36.9A5.24,5.24,0,0,0,42,31.26V13.37A5.24,5.24,0,0,0,36.9,8Zm1.7,23.26a1.75,1.75,0,0,1-1.7,1.79H19.14a4.93,4.93,0,0,0-2.64.77L11.4,37V13.37a1.74,1.74,0,0,1,1.7-1.79H36.9a1.74,1.74,0,0,1,1.7,1.79Z"/><rect class="cls-2" width="50" height="50"/></g></g></svg>