<svg xmlns="http://www.w3.org/2000/svg" viewBox="0 0 50 50"><defs><style>.cls-1{fill:#fff;}.cls-2{fill:#1c97d5;}.cls-3{fill:none;}</style></defs><g id="레이어_2" data-name="레이어 2"><g id="레이어_1-2" data-name="레이어 1"><rect class="cls-1" x="7" y="9" width="36" height="32" transform="translate(0 50) rotate(-90)"/><path class="cls-2" d="M19.14,14V13.3H17.92l.83-2.69-.8-.19-.88,2.88h-.79l-.82-2.69h0l0,0v-.15h-.82v.19h0l-.82,2.69H13l-.88-2.88-.79.19.82,2.69H10.92V14h1.44l.6,2h0v.19h.82V16h0l.6-2h1.23l.6,2h0l0,0v.15h.82V16h0l.6-2Zm-5.75.57L13.21,14h.36Zm1.25-1.29L15,12l.4,1.3Zm2,1.29L16.5,14h.35Z"/><rect class="cls-2" x="13.17" y="21.82" width="23.65" height="1.41"/><rect class="cls-2" x="13.17" y="27.47" width="23.65" height="1.41"/><rect class="cls-2" x="13.17" y="34.53" width="23.65" height="1.41"/><rect class="cls-3" width="50" height="50"/></g></g></svg>